<svg xmlns="http://www.w3.org/2000/svg" width="154" height="26" viewBox="0 0 1540 260">
  <defs>
    <style>
      .cls-1 {
        fill: none;
        stroke: #f3f2ed;
        stroke-width: 20px;
      }

      .cls-2 {
        fill: #f3f2ed;
        fill-rule: evenodd;
      }
    </style>
  </defs>
  <rect class="cls-1" x="363" width="826" height="260"/>
  <path id="GRIFF" class="cls-2" d="M561.942,131.518h-73.5v21.857h46.915v45.419a40.7,40.7,0,0,1-18.655,11.25,93.142,93.142,0,0,1-26.311,3.333q-26.594,0-42.183-20.134t-15.592-54.27v-16.58q0.138-35.807,13.991-54.688t40.721-18.881q40.371,0,47.89,40.373h26.729q-4.315-29.79-23.666-46.011T487.184,26.967q-38.7,0-60.072,25.2t-21.369,71v17.681q0.277,28.262,10.789,49.7t29.722,33.064q19.212,11.626,43.992,11.625,24.5,0,42.948-7.309t28.748-22.066V131.518ZM724.825,232.449H753.5v-1.67l-47.612-86.035q18.237-6.96,28.47-21.022t10.232-32.994q0-29.79-18.446-45.384T673.454,29.752h-67.1v202.7h26.869v-82h47.611Zm-91.6-180.841H674.15q21.16,0.14,32.368,10.182t11.207,28.868q0,17.3-11.764,27.617T674.289,128.6H633.221V51.608Zm177.5-21.857h-26.73v202.7h26.73V29.752Zm160.654,91.326h-85.06V51.608h98.843V29.752H859.585v202.7h26.73V142.934h85.06V121.077Zm157.6,0h-85.06V51.608h98.84V29.752H1017.18v202.7h26.73V142.934h85.06V121.077Z"/>
</svg>
